Coordinates
version=1
nRows=6
nColumns=63
inDegrees=yes

Units are S.I. units (second, meters, Newtons, ...)
If the header above contains a line with 'inDegrees', this indicates whether rotational values are in degrees (yes) or radians (no).

endheader
time	pelvis_tilt	pelvis_list	pelvis_rotation	pelvis_tx	pelvis_ty	pelvis_tz	hip_flexion_r	hip_adduction_r	hip_rotation_r	knee_angle_r	knee_angle_r_beta	ankle_angle_r	subtalar_angle_r	mtp_angle_r	hip_flexion_l	hip_adduction_l	hip_rotation_l	knee_angle_l	knee_angle_l_beta	ankle_angle_l	subtalar_angle_l	mtp_angle_l	L5_S1_Flex_Ext	L5_S1_Lat_Bending	L5_S1_axial_rotation	L4_L5_Flex_Ext	L4_L5_Lat_Bending	L4_L5_axial_rotation	L3_L4_Flex_Ext	L3_L4_Lat_Bending	L3_L4_axial_rotation	L2_L3_Flex_Ext	L2_L3_Lat_Bending	L2_L3_axial_rotation	L1_L2_Flex_Ext	L1_L2_Lat_Bending	L1_L2_axial_rotation	L1_T12_Flex_Ext	L1_T12_Lat_Bending	L1_T12_axial_rotation	Abs_r3	Abs_r2	Abs_r1	Abs_t1	Abs_t2	neck_flexion	neck_bending	neck_rotation	arm_flex_r	arm_add_r	arm_rot_r	elbow_flex_r	pro_sup_r	wrist_flex_r	wrist_dev_r	arm_flex_l	arm_add_l	arm_rot_l	elbow_flex_l	pro_sup_l	wrist_flex_l	wrist_dev_l
      0.00000000	      2.42616815	     -3.57560946	     94.20296557	      0.22308312	      0.99612213	      0.42898852	      6.06251280	      2.84156354	     -0.52343999	      9.54584337	      0.16660640	     30.00646053	     -5.56790493	      0.00000000	      4.03412921	     -1.43117524	      3.34220101	      5.40151089	      0.09427415	     26.19277463	     -2.29676546	      0.00000000	      0.08831416	      0.43791809	     -0.68064028	      0.16400823	      0.58243106	     -0.72318030	      0.14509134	      1.06475405	     -0.72318030	      0.10093426	      1.06475405	     -0.59556025	      0.08200853	      0.89300257	     -0.55302023	      0.05046271	      0.67833512	     -0.51048021	      0.63081924	      4.95381703	     -3.78551705	      0.00000000	      0.00000000	     25.99054523	      6.24166699	     14.18742637	     12.00407941	    -11.51710925	    141.67760363	     10.09979444	      8.12789353	     -2.25381296	     -8.25897263	      6.33893080	     -4.49294194	    145.19318438	      3.23630180	      2.89472708	     -4.97618407	     -7.58762391
      0.01694915	      2.24348447	     -3.31424328	     94.19912732	      0.22325693	      0.99596839	      0.42575321	      5.39907262	      2.67485243	     -0.58630970	      9.55457498	      0.16675879	     30.22120589	     -5.71181770	      0.00000000	      3.40727114	     -1.30466724	      3.70133919	      5.26921153	      0.09196509	     26.29375622	     -2.17505952	      0.00000000	      0.14065082	      0.40195817	     -0.62627557	      0.26120264	      0.53460437	     -0.66541779	      0.23107523	      0.97732110	     -0.66541779	      0.16074982	      0.97732110	     -0.54799112	      0.13060835	      0.81967311	     -0.50884890	      0.08036788	      0.62263321	     -0.46970667	      1.00465475	      4.54703124	     -3.48315681	      0.00000000	      0.00000000	     27.07137133	      6.32674507	     13.91173597	     11.56121585	    -11.50851803	    141.35556256	     10.62065474	      7.78524427	     -1.88539992	     -8.25008514	      6.07431281	     -4.55826788	    145.77900439	      3.34753337	      3.40603116	     -5.12793579	     -7.44456825
      0.03389831	      1.89292493	     -2.72386254	     93.88392605	      0.22384292	      0.99661709	      0.42278373	      4.36841136	      2.45644309	      0.78159461	      9.39854427	      0.16403554	     29.86651380	     -6.98424802	      0.00000000	      2.01065478	     -0.87837073	      7.49174910	      4.29592369	      0.07497801	     24.40681742	     -7.60598769	      0.00000000	      0.12575049	      0.34425454	     -0.45589065	      0.23353124	      0.45785854	     -0.48438382	      0.20659548	      0.83702050	     -0.48438382	      0.14372024	      0.83702050	     -0.39890432	      0.11677191	      0.70200387	     -0.37041116	      0.07185383	      0.53325029	     -0.34191799	      0.89822318	      3.89427625	     -2.53552706	      0.00000000	      0.00000000	     27.47605198	      5.43539824	     11.26635311	     10.62897985	    -11.82551379	    135.15825960	     11.41814490	      8.24175063	     -1.63422389	     -8.05464132	      6.19090230	     -4.55818961	    152.05332327	      2.92856617	      3.41638677	     -5.71946485	     -6.55074043
      0.05084746	      1.76389224	     -2.42308625	     93.83367125	      0.22399420	      0.99698125	      0.42061157	      3.74784750	      2.29320450	      0.22199325	      9.26126404	      0.16163955	     30.05044826	     -5.94348041	      0.00000000	      1.40534009	     -0.83962577	      6.54265039	      4.08587521	      0.07131198	     24.56830255	     -6.02099405	      0.00000000	      0.13062394	      0.32734072	     -0.43683337	      0.24258172	      0.43536316	     -0.46413545	      0.21460208	      0.79589622	     -0.46413545	      0.14929010	      0.79589622	     -0.38222920	      0.12129739	      0.66751319	     -0.35492711	      0.07463852	      0.50705077	     -0.32762503	      0.93303376	      3.70294368	     -2.42953615	      0.00000000	      0.00000000	     27.58426519	      5.28762337	     11.06443975	     10.16815034	    -11.88184141	    133.49459647	     11.64517115	      9.57343415	     -2.05111544	     -8.42716137	      6.22391424	     -4.63446499	    151.14843381	      3.49144411	      5.08319064	     -6.41893550	     -6.46689584
      0.06779661	      1.67603108	     -2.15947939	     93.42553819	      0.22473077	      0.99734903	      0.41887198	      3.30751086	      2.33891704	      1.79001852	      9.23383827	      0.16116088	     29.70397950	     -7.46013967	      0.00000000	      0.73214178	     -0.72419035	      8.68895583	      3.65368397	      0.06376882	     23.51404541	     -9.63946421	      0.00000000	      0.12173925	      0.31982094	     -0.35027522	      0.22608196	      0.42536186	     -0.37216742	      0.20000542	      0.77761264	     -0.37216742	      0.13913579	      0.77761264	     -0.30649082	      0.11304707	      0.65217887	     -0.28459862	      0.06956181	      0.49540264	     -0.26270642	      0.86957130	      3.61787849	     -1.94812570	      0.00000000	      0.00000000	     27.55774506	      5.07203686	     11.05048165	      9.76471391	    -11.74604220	    134.21906011	     11.47835887	      8.47321200	     -2.37460837	     -8.96648412	      6.36342793	     -4.63589510	    153.21189926	      3.74037763	      4.19350167	     -6.42120006	     -6.12912902
      0.08474576	      1.64837907	     -1.95578524	     93.14451410	      0.22522774	      0.99772912	      0.41764664	      2.95573600	      2.35845715	      2.32297730	      9.13823494	      0.15949229	     29.59387159	     -7.67751417	      0.00000000	      0.29207555	     -0.73786472	      8.37989287	      3.44097427	      0.06005633	     23.45690589	     -9.55687173	      0.00000000	      0.10814939	      0.32289283	     -0.32783259	      0.20084424	      0.42944746	     -0.34832213	      0.17767864	      0.78508162	     -0.34832213	      0.12360394	      0.78508162	     -0.28685352	      0.10042753	      0.65844305	     -0.26636398	      0.06179656	      0.50016099	     -0.24587445	      0.77250030	      3.65262822	     -1.82330654	      0.00000000	      0.00000000	     27.43738988	      4.97849341	     11.45086217	      9.55773887	    -11.74751808	    133.91232447	     11.54489893	      9.34903057	     -3.18711292	     -9.56759044	      6.48895430	     -4.68433295	    152.79064029	      4.25657354	      4.44005156	     -6.64210565	     -6.06382635
